<?xml version="1.0" encoding="UTF-8" standalone="no"?><!DOCTYPE svg PUBLIC "-//W3C//DTD SVG 1.1//EN" "http://www.w3.org/Graphics/SVG/1.1/DTD/svg11.dtd"><svg width="100%" height="100%" viewBox="0 0 6400 6400" version="1.1" xmlns="http://www.w3.org/2000/svg" xmlns:xlink="http://www.w3.org/1999/xlink" xml:space="preserve" xmlns:serif="http://www.serif.com/" style="fill-rule:evenodd;clip-rule:evenodd;stroke-linejoin:round;stroke-miterlimit:2;"><rect id="textlogo_black_smallsquare_whitebg" x="0" y="0" width="6400" height="6400" style="fill:none;"/><clipPath id="_clip1"><rect x="0" y="0" width="6400" height="6400"/></clipPath><g clip-path="url(#_clip1)"><rect x="-0.265" y="0" width="6400" height="6400" style="fill:#fff;"/><g id="Logo"><g><path d="M5791.25,3349.6l0,277.239l-435.543,0l0,-277.239l435.543,0Z"/><rect x="3061.53" y="2233.55" width="276.933" height="1393.29"/><path d="M4045.13,3349.6l277.292,0l1020.89,-1770.18l447.94,0l0,277.238l-288.052,0l-1020.89,1770.18l-437.179,0l0,-277.239Z"/><path d="M4045.13,1856.65l0,-277.238l435.543,0l0,277.238l-435.543,0Z"/><path d="M2354.87,1856.65l0,-277.238l-435.543,0l0,277.238l435.543,0Z"/><path d="M2354.87,3626.83l-447.94,0l-1020.89,-1770.18l-277.292,0l0,-277.238l437.179,0l1020.89,1770.18l288.052,0l0,277.239Z"/><path d="M608.75,3349.6l0,277.239l435.543,0l0,-277.239l-435.543,0Z"/><path d="M3338.47,1856.65l0,-277.238l-276.934,0l0,277.238l276.934,0Z"/></g><g><path d="M794.472,4672.61c22.509,0 47.27,-6.748 67.528,-13.495l-12.005,-46.505c-12.005,4.508 -28.512,9.768 -41.267,9.768c-42.017,0 -56.273,-25.548 -56.273,-70.631l0,-202.876l98.29,0l0,-50.232l-98.29,0l0,-102.154l-51.693,0l-7.492,102.154l-57.018,3.749l0,46.483l54.022,0l0,202.124c0,72.132 26.221,121.615 104.198,121.615Z" style="fill-rule:nonzero;"/><path d="M933.373,4663.6l61.431,0l0,-264.399c36.785,-36.805 62.31,-56.335 99.845,-56.335c48.046,0 69.068,29.295 69.068,97.648l0,223.086l61.431,0l0,-231.349c0,-93.134 -34.462,-142.621 -110.98,-142.621c-50.298,0 -87.083,26.993 -121.612,59.997l2.248,-75.02l0,-145.72l-61.431,0l0,534.713Z" style="fill-rule:nonzero;"/><path d="M1489.31,4672.61c49.544,0 88.559,-17.243 120.017,-37.486l-21.721,-40.559c-26.983,17.289 -56.259,28.564 -90.79,28.564c-69.812,0 -117.105,-49.611 -121.609,-127.035l246.104,0c1.498,-8.995 2.247,-22.487 2.247,-35.229c0,-104.467 -52.43,-171.239 -145.508,-171.239c-83.325,0 -163.524,72.786 -163.524,192.226c0,119.478 77.196,190.758 174.784,190.758Zm-114.853,-220.739c7.506,-72.169 54.048,-113.515 105.094,-113.515c57.051,0 90.079,39.843 90.079,113.515l-195.173,0Z" style="fill-rule:nonzero;"/><path d="M1863.75,4663.6l61.431,0l0,-264.399c36.786,-36.805 62.31,-56.335 99.846,-56.335c48.046,0 69.067,29.295 69.067,97.648l0,223.086l61.431,0l0,-231.349c0,-93.134 -34.461,-142.621 -110.98,-142.621c-50.298,0 -87.834,26.993 -122.36,61.499l-2.248,0l-5.244,-52.486l-50.943,0l0,364.957Z" style="fill-rule:nonzero;"/><path d="M2274.17,4663.6l61.432,0l0,-364.957l-61.432,0l0,364.957Zm31.466,-440.164c23.984,0 42.721,-16.505 42.721,-39.763c0,-24.008 -18.737,-39.763 -42.721,-39.763c-23.983,0 -42.72,15.755 -42.72,39.763c0,23.258 18.737,39.763 42.72,39.763Z" style="fill-rule:nonzero;"/><path d="M2407.72,4663.6l64.506,0l49.506,-84.856c12.001,-22.528 24.002,-44.305 36.753,-65.331l3.001,0c13.501,21.026 27.002,43.554 39.754,65.331l53.255,84.856l66.759,0l-118.514,-183.98l110.261,-180.977l-64.506,0l-44.255,80.352c-11.251,19.524 -22.502,40.55 -33.003,60.826l-3.001,0c-12.751,-20.276 -24.752,-41.302 -36.003,-60.826l-48.755,-80.352l-66.757,0l110.261,174.219l-119.262,190.738Z" style="fill-rule:nonzero;"/><path d="M3087.41,4672.61c43.518,0 84.785,-17.244 117.798,-46.485l-27.011,-41.316c-22.509,20.287 -51.771,36.818 -85.535,36.818c-66.777,0 -112.546,-56.354 -112.546,-139.758c0,-84.155 48.02,-141.26 114.047,-141.26c29.262,0 51.771,13.524 72.78,32.309l31.512,-40.556c-25.51,-23.243 -58.523,-42.736 -106.543,-42.736c-93.788,0 -175.478,69.767 -175.478,192.243c0,120.973 74.187,190.741 170.976,190.741Z" style="fill-rule:nonzero;"/><path d="M3411.59,4672.61c89.326,0 168.772,-69.768 168.772,-190.741c0,-122.476 -79.446,-192.243 -168.772,-192.243c-89.326,0 -168.772,69.767 -168.772,192.243c0,120.973 79.446,190.741 168.772,190.741Zm0,-50.983c-62.303,0 -105.089,-56.354 -105.089,-139.758c0,-84.155 42.786,-141.26 105.089,-141.26c63.053,0 105.09,57.105 105.09,141.26c0,83.404 -42.037,139.758 -105.09,139.758Z" style="fill-rule:nonzero;"/><path d="M3676.49,4663.6l61.431,0l0,-264.399c33.784,-37.556 64.564,-56.335 91.591,-56.335c46.546,0 68.318,29.295 68.318,97.648l0,223.086l61.432,0l0,-264.399c33.784,-37.556 63.063,-56.335 91.592,-56.335c45.795,0 67.566,29.295 67.566,97.648l0,223.086l61.432,0l0,-231.349c0,-93.134 -35.96,-142.621 -110.98,-142.621c-44.295,0 -81.832,28.492 -120.099,69.761c-14.983,-43.518 -44.949,-69.761 -100.493,-69.761c-43.543,0 -81.83,26.993 -113.355,61.499l-2.248,0l-5.244,-52.486l-50.943,0l0,364.957Z" style="fill-rule:nonzero;"/><path d="M4298.49,4817.58l61.431,0l0,-123.186l-1.498,-63.77c33.777,26.242 67.557,41.987 101.337,41.987c83.325,0 157.516,-72.773 157.516,-196.752c0,-113.459 -50.196,-186.232 -144.003,-186.232c-42.789,0 -83.325,23.243 -116.349,50.984l-2.247,0l-5.244,-41.971l-50.943,0l0,518.94Zm150.761,-196.703c-24.021,0 -56.3,-10.516 -89.33,-38.308l0,-191.616c36.032,-32.31 66.81,-49.592 97.587,-49.592c69.062,0 96.086,54.1 96.086,134.498c0,90.185 -44.289,145.018 -104.343,145.018Z" style="fill-rule:nonzero;"/><path d="M4788.38,4672.61c45.795,0 86.335,-23.991 120.86,-52.486l2.248,0l5.244,43.472l50.944,0l0,-223.837c0,-90.888 -37.459,-150.133 -126.744,-150.133c-58.558,0 -109.586,25.491 -143.297,47.234l23.972,42.808c28.485,-19.53 66.773,-39.059 108.814,-39.059c60.06,0 75.073,45.068 75.073,91.638c-155.402,17.276 -223.591,57.086 -223.591,136.707c0,65.421 45.698,103.656 106.477,103.656Zm18.018,-49.481c-36.036,0 -64.564,-17.282 -64.564,-58.608c0,-46.586 42.041,-76.641 163.66,-91.669l0,101.437c-35.283,31.558 -63.812,48.84 -99.096,48.84Z" style="fill-rule:nonzero;"/><path d="M5082.56,4663.6l61.432,0l0,-264.399c36.785,-36.805 62.309,-56.335 99.845,-56.335c48.046,0 69.067,29.295 69.067,97.648l0,223.086l61.432,0l0,-231.349c0,-93.134 -34.462,-142.621 -110.98,-142.621c-50.298,0 -87.834,26.993 -122.361,61.499l-2.247,0l-5.245,-52.486l-50.943,0l0,364.957Z" style="fill-rule:nonzero;"/><path d="M5498.97,4820.59c73.51,0 111.015,-54.739 136.518,-126.847l137.266,-395.097l-60.005,0l-65.259,202.055c-9.751,32.299 -20.253,69.856 -30.754,102.906l-3.001,0c-11.251,-33.801 -24.003,-71.358 -35.254,-102.906l-74.26,-202.055l-63.759,0l146.27,365.802l-8.251,27.041c-15.002,45.068 -41.256,78.118 -82.511,78.118c-9.001,0 -20.253,-3.004 -27.754,-5.258l-12.001,48.744c12.001,4.498 26.253,7.497 42.755,7.497Z" style="fill-rule:nonzero;"/></g></g></g></svg>